<?xml version="1.0" encoding="utf-8"?>
<svg version="1.1" id="Layer_1" xmlns="http://www.w3.org/2000/svg" xmlns:xlink="http://www.w3.org/1999/xlink" x="0px" y="0px"
	 viewBox="0 0 1086.95 1080" style="enable-background:new 0 0 1086.95 1080;" xml:space="preserve">
<style type="text/css">
	.st0{fill:#999999;}
	.st1{fill-rule:evenodd;clip-rule:evenodd;fill:url(#SVGID_1_);}
	.st2{fill-rule:evenodd;clip-rule:evenodd;fill:url(#SVGID_2_);}
	.st3{fill:#333333;}
	.st4{fill:url(#SVGID_3_);}
	.st5{fill:url(#SVGID_4_);}
	.st6{fill:url(#SVGID_5_);}
	.st7{fill:url(#SVGID_6_);}
	.st8{fill:#666666;}
	.st9{fill:#808080;}
	.st10{opacity:0.5;fill:#333333;}
	.st11{fill-rule:evenodd;clip-rule:evenodd;fill:#FFFFFF;}
	.st12{fill-rule:evenodd;clip-rule:evenodd;fill:#4DC601;}
	.st13{fill:#FFFFFF;}
	.st14{fill:#CCCCCC;}
	.st15{fill-rule:evenodd;clip-rule:evenodd;fill:url(#SVGID_7_);}
	.st16{fill:#FCEE21;}
</style>
<g>
	<path class="st0" d="M840.86,731.82c-13.35,10.05-69.7,58.09-19.97,120.92c0,0,75.49-46.76,23.71-121.37
		c0.88,18.97-1.32,38.04-5.2,57.19c-4.07,20.2-10.02,40.56-16.18,61.02l-3.6-1.09c6.11-20.3,12.02-40.54,16.1-60.68
		C839.52,769.01,841.69,750.34,840.86,731.82z"/>
	<path class="st0" d="M884.72,196.42c11.15,7.73,22.06,15.59,32.17,23.97c7.8,6.49,15.15,13.3,21.82,20.64
		C938.88,229.27,934.48,198.8,884.72,196.42z"/>
	<path class="st0" d="M781.61,86.2c0.15,3.05,3.11,43.03,54.74,33.15v-0.3c-6.83-5.76-14.31-10.91-22.17-15.64
		C803.82,97.19,792.8,91.64,781.61,86.2z"/>
	<path class="st0" d="M784.07,55.45v-0.31c-6.83-5.76-14.3-10.88-22.17-15.61c-10.35-6.24-21.38-11.8-32.55-17.23
		C729.49,25.34,732.45,65.32,784.07,55.45z"/>
	<path class="st0" d="M780.08,793.66c-3.13,19.4-9.4,38.23-17.37,56.8c-8.4,19.57-18.75,38.93-29.31,58.33l-3.41-1.87
		c10.48-19.26,20.75-38.48,29.15-58.03c7.81-18.2,13.97-36.65,17.05-55.57c-15.67,7.33-82.86,43.96-45.82,118.17
		C730.37,911.49,816.7,880.22,780.08,793.66z"/>
	<path class="st0" d="M785.92,85.5c10.17,4.98,20.16,10.09,29.56,15.75c7.25,4.36,14.18,9.06,20.58,14.27
		C834.74,105.78,827.29,81.19,785.92,85.5z"/>
	<path class="st0" d="M948.46,688.53c0,0,45.24-67.92-26.36-110.39c7.96,15.49,13.37,32.27,17.42,49.72
		c4.27,18.43,7.05,37.7,9.69,57.13l-3.42,0.47c-2.63-19.28-5.38-38.43-9.64-56.82c-3.98-17.15-9.26-33.56-17-48.69
		C911.82,593.45,883.06,655.11,948.46,688.53z"/>
	<path class="st0" d="M994.93,503.57c-5.79-12.5-12.87-24.52-20.79-36.29c-10.4-15.45-22.17-30.41-34.25-45.27
		c-1.78,4.34-23.59,62.06,54.84,82L994.93,503.57z"/>
	<path class="st0" d="M919.8,263.36c11.73,11.13,23.18,22.39,33.58,34.12c8.02,9.03,15.46,18.42,21.97,28.27
		C977.68,311.92,978.01,275.22,919.8,263.36z"/>
	<path class="st0" d="M984.65,580.35c-5.8-12.49-12.89-24.52-20.8-36.28c-10.4-15.46-22.17-30.41-34.25-45.28
		c-1.78,4.35-23.59,62.06,54.85,82L984.65,580.35z"/>
	<path class="st0" d="M936.06,500.59c10.96,13.58,21.58,27.26,31.02,41.29c7.29,10.82,13.89,21.9,19.46,33.37
		C991.01,560.8,996.59,521.62,936.06,500.59z"/>
	<path class="st0" d="M946.35,423.81c10.96,13.58,21.57,27.25,31.01,41.27c7.31,10.84,13.9,21.92,19.47,33.38
		C1001.3,484.01,1006.89,444.83,946.35,423.81z"/>
	<path class="st0" d="M939.28,340.93c10.96,13.58,21.57,27.26,31.02,41.29c7.29,10.8,13.89,21.89,19.44,33.37
		C994.21,401.13,999.8,361.95,939.28,340.93z"/>
	<path class="st0" d="M783.79,51.61c-1.33-9.74-8.77-34.33-50.14-30.04c10.16,4.99,20.15,10.09,29.56,15.75
		C770.46,41.68,777.37,46.39,783.79,51.61z"/>
	<path class="st0" d="M700.42,832.95c-4.22,19.17-11.56,37.63-20.58,55.7c-9.51,19.07-20.95,37.79-32.6,56.55l-3.3-2.06
		c11.57-18.62,22.92-37.21,32.42-56.24c8.85-17.73,16.04-35.79,20.2-54.51c-16.05,6.42-85.23,39.13-52.51,115.33
		C644.05,947.72,732.04,921.47,700.42,832.95z"/>
	<path class="st0" d="M612.51,843.08c-1.85,19.56-6.87,38.76-13.62,57.82c-7.12,20.08-16.18,40.07-25.45,60.11l-3.52-1.64
		c9.2-19.91,18.19-39.76,25.29-59.8c6.63-18.7,11.55-37.51,13.4-56.59c-15.14,8.35-79.81,49.32-38.02,120.93
		C570.59,963.91,654.69,927.05,612.51,843.08z"/>
	<path class="st0" d="M987.65,421.12l0.21-0.44c-5.8-12.49-12.9-24.52-20.8-36.28c-10.42-15.46-22.18-30.4-34.26-45.28
		C931.04,343.47,909.22,401.18,987.65,421.12z"/>
	<path class="st0" d="M1001.26,308.57l0.32,0.28c55.55-44.85,16.95-83.06,13.95-85.88c-4.24,16.35-8.2,32.67-10.9,48.88
		C1002.62,284.18,1001.34,296.42,1001.26,308.57z"/>
	<path class="st0" d="M1021.73,382.62l0.34,0.35c67.59-44.6,28.13-91.97,25.03-95.49c-6.55,18.02-12.78,36.01-17.57,54.04
		C1025.89,355.22,1023.12,368.92,1021.73,382.62z"/>
	<path class="st0" d="M891.7,779.02c0,0,67.89-57.32,5.81-123.54c3.63,18.64,4.22,37.83,3.18,57.34
		c-1.1,20.57-4.02,41.61-7.14,62.73l-3.71-0.56c3.09-20.97,5.99-41.85,7.1-62.4c1.02-19.13,0.45-37.93-3.07-56.12
		C882.12,668.38,833.38,724.14,891.7,779.02z"/>
	<path class="st0" d="M997.89,305.17c0.26-11.23,1.5-22.54,3.37-33.89c2.44-14.73,5.93-29.57,9.74-44.49
		C970.22,265.92,989.02,295.24,997.89,305.17z"/>
	<path class="st0" d="M970.33,231.38c-1.12-10.69-1.32-21.58-0.93-32.57c0.51-14.26,2.03-28.78,3.83-43.4
		C939.29,197.53,960.72,223.05,970.33,231.38z"/>
	<path class="st0" d="M973.96,234.18l0.35,0.22c47.2-49.36,5.94-80.87,2.75-83.18c-2.03,16.04-3.8,32-4.36,47.7
		C972.26,210.86,972.53,222.66,973.96,234.18z"/>
	<path class="st0" d="M1077.12,463.36c-61.27,18.68-57.2,58.05-53.29,72.66c6-11.25,13.03-22.07,20.73-32.59
		C1054.53,489.76,1065.66,476.52,1077.12,463.36z"/>
	<path class="st0" d="M1025.53,541.2l0.19,0.44c79.14-16.9,59.55-75.41,57.94-79.82c-12.63,14.39-24.98,28.87-35.96,43.92
		C1039.35,517.19,1031.8,528.94,1025.53,541.2z"/>
	<path class="st0" d="M1037.38,581.46c13.12-10.66,27.25-20.62,41.68-30.41c-64.01,2.41-70.06,41.5-70,56.64
		C1017.73,598.35,1027.27,589.68,1037.38,581.46z"/>
	<path class="st0" d="M1025.22,458.96c3.92-12.13,8.92-24.03,14.64-35.77c7.4-15.21,16.03-30.22,24.99-45.2
		C1007.84,407.26,1018.8,445.28,1025.22,458.96z"/>
	<path class="st0" d="M942.85,177.66l0.36,0.11c28.34-56.13-16.39-72.74-19.84-73.92c2.52,14.65,5.22,29.16,8.93,43.15
		C935.12,157.62,938.52,167.91,942.85,177.66z"/>
	<path class="st0" d="M1027.81,463.76l0.27,0.4c74.9-30.7,45.29-84.8,42.94-88.86c-9.9,16.42-19.49,32.86-27.65,49.62
		C1037.17,437.67,1031.81,450.58,1027.81,463.76z"/>
	<path class="st0" d="M1018.27,378.43c1.51-12.67,4.13-25.3,7.49-37.92c4.34-16.36,9.91-32.76,15.81-49.2
		C991.26,331.06,1009.33,366.25,1018.27,378.43z"/>
	<path class="st0" d="M896.51,170.83c-1.59-11.66-10.51-41.11-60.07-35.97c12.19,5.96,24.14,12.09,35.4,18.85
		C880.54,158.95,888.83,164.57,896.51,170.83z"/>
	<path class="st0" d="M974.24,330.68c-6.86-10.77-14.86-20.96-23.57-30.79c-11.46-12.91-24.12-25.2-37.04-37.38
		c-1.11,4.21-14.07,59.95,60.46,68.6L974.24,330.68z"/>
	<path class="st0" d="M896.84,175.42v-0.37c-8.17-6.9-17.12-13.05-26.55-18.72c-12.41-7.45-25.6-14.11-39.01-20.61
		C831.48,139.37,835.02,187.25,896.84,175.42z"/>
	<path class="st0" d="M938.36,245.63l0.06-0.37c-7.06-8.06-14.99-15.47-23.46-22.52c-11.14-9.24-23.2-17.81-35.46-26.25
		C879.12,200.13,875.45,248,938.36,245.63z"/>
	<path class="st0" d="M813.65,52.17c-5.76-6-11.05-12.54-16.01-19.46c-6.45-8.96-12.4-18.54-18.24-28.32
		C778.64,46.3,803.82,51.67,813.65,52.17z"/>
	<path class="st0" d="M856.9,85.22c-4.64-6.89-8.7-14.26-12.43-21.94c-4.81-9.93-9.02-20.4-13.1-31.05
		C823.43,73.37,847.31,83.02,856.9,85.22z"/>
	<path class="st0" d="M899.2,124.78l0.34,0.1c27.11-53.68-15.68-69.57-18.96-70.69c2.4,14.01,5.01,27.9,8.54,41.26
		C891.81,105.6,895.07,115.45,899.2,124.78z"/>
	<path class="st0" d="M817.18,52.16l0.31-0.03c5.45-52.66-34.69-52.22-37.75-52.12c6.37,10.77,12.85,21.36,19.95,31.23
		C805.11,38.74,810.86,45.8,817.18,52.16z"/>
	<path class="st0" d="M895.43,123.35c-3.69-8.7-6.64-17.8-9.12-27.15c-3.22-12.14-5.67-24.75-7.89-37.5
		C860.66,102.86,885.2,118.82,895.43,123.35z"/>
	<path class="st0" d="M938.92,176.17c-3.87-9.1-6.95-18.62-9.53-28.4c-3.36-12.69-5.93-25.86-8.26-39.21
		C902.54,154.75,928.21,171.43,938.92,176.17z"/>
	<path class="st0" d="M860.4,85.81l0.31,0.03c14.41-50.93-25.2-57.45-28.24-57.86c4.44,11.69,9,23.25,14.29,34.2
		C850.8,70.5,855.25,78.45,860.4,85.81z"/>
	<path class="st0" d="M789.23,965.45c18.09,8.91,35.06,19.15,49.99,31.86c-28.21-89.69-114.1-57.21-114.1-57.21
		c19.89,80.54,94.71,64.62,111.36,60c-14.59-12.39-31.21-22.39-48.96-31.15c-19.03-9.39-39.29-17.31-59.73-25.13l1.39-3.64
		C749.77,948.05,770.17,956.04,789.23,965.45z"/>
	<path class="st0" d="M1029.93,797.55c-58.51-62.29-116.1-1.57-116.1-1.57c48.09,58.12,103.14,15.36,114.96,4.95
		c-16.85-4.35-34.43-5.96-52.42-6.1c-19.31-0.12-39.05,1.41-58.89,3.13l-0.29-3.53c19.97-1.73,39.85-3.3,59.2-3.15
		C994.72,791.42,1012.66,793.08,1029.93,797.55z"/>
	<path class="st0" d="M1066.66,712.89c-67.02-49.41-111.58,18.98-111.58,18.98c56.29,47.23,101.56-3.47,111.07-15.53
		c-16.92-1.2-34.05,0.36-51.32,3.41c-18.54,3.27-37.19,8.25-55.9,13.38l-0.92-3.34c18.85-5.18,37.63-10.18,56.2-13.45
		C1031.83,713.22,1049.33,711.63,1066.66,712.89z"/>
	<path class="st0" d="M926.13,857.38c19.3,2.87,37.95,7.31,55.46,14.61C929.19,797.65,859.56,853,859.56,853
		c42.03,68.37,106.33,31.55,120.32,22.35c-17.1-7.08-35.37-11.4-54.3-14.22c-20.32-3.02-41.33-4.34-62.46-5.49l0.19-3.77
		C884.62,853.04,905.78,854.35,926.13,857.38z"/>
	<path class="st0" d="M1039.84,584.51c-10.99,8.92-21.28,18.36-30.44,28.62l0.07,0.47c80.82,3.89,76.73-57.7,76.3-62.38
		C1069.89,561.91,1054.28,572.76,1039.84,584.51z"/>
	<path class="st0" d="M989.87,673l-0.03,0.48c77.68,22.7,88.05-38.14,88.72-42.79c-17.94,6.68-35.64,13.58-52.41,21.61
		C1013.38,658.42,1001.18,665.18,989.87,673z"/>
	<path class="st0" d="M867.76,915.19c19.05,6.59,37.15,14.65,53.54,25.4c-39.07-85.47-120.29-42.57-120.29-42.57
		c29.69,77.44,101.96,52.34,117.91,45.68c-16-10.47-33.74-18.35-52.41-24.82c-20.06-6.95-41.15-12.31-62.38-17.51l0.92-3.79
		C826.45,902.84,847.68,908.23,867.76,915.19z"/>
	<path class="st0" d="M1024.46,648.78c15.23-7.3,31.29-13.67,47.6-19.83c-62.79-12.64-77.78,23.96-81.23,38.69
		C1001.41,660.59,1012.71,654.39,1024.46,648.78z"/>
	<path class="st0" d="M707.48,999.11c16.43,11.7,31.56,24.52,44.28,39.45c-13.59-93.04-103.55-74.72-103.55-74.72
		c6.84,82.68,83.22,78.94,100.41,77.03c-12.45-14.54-27.26-27.09-43.39-38.57c-17.29-12.32-36.04-23.37-54.97-34.35l1.96-3.38
		C671.27,975.64,690.14,986.77,707.48,999.11z"/>
	<path class="st0" d="M872.48,827.19c87.65-90.76,141.86-216.12,141.86-354.6c0-138.46-54.21-263.84-141.86-354.6
		c-22.98-23.78-48.27-45.19-75.46-63.85v7.72c25.49,17.82,49.24,38.12,70.92,60.56C954.47,212.02,1008,335.84,1008,472.59
		c0,136.78-53.53,260.57-140.06,350.18c-86.43,89.5-205.81,144.89-337.68,144.99v6.37C663.9,974.04,784.89,917.9,872.48,827.19z"/>
	<path class="st0" d="M623.16,1032.2c14.36,14.18,27.24,29.24,37.44,46.02c1.36-94.02-90.34-90.32-90.34-90.32
		c-6.4,82.72,69.61,91.23,86.87,92.1c-9.97-16.35-22.6-31.1-36.69-45.01c-15.13-14.93-31.86-28.84-48.83-42.7l2.47-3.03
		C591.14,1003.22,608,1017.24,623.16,1032.2z"/>
</g>
<g>
	<path class="st0" d="M90.07,456.22c5.16-10.63,11.27-20.91,18.03-30.92c8.75-13,18.59-25.67,28.73-38.26
		C80.75,406.53,85.94,442.82,90.07,456.22z"/>
	<path class="st0" d="M103.41,372.98c6.05-9.13,12.93-17.82,20.37-26.19c9.64-10.86,20.23-21.3,31.11-31.61
		C100.95,326.16,101.25,360.17,103.41,372.98z"/>
	<path class="st0" d="M137.36,294.48c6.17-6.79,12.97-13.11,20.22-19.12c9.36-7.77,19.47-15.05,29.8-22.21
		C141.26,255.36,137.2,283.58,137.36,294.48z"/>
	<path class="st0" d="M192.23,253.22c-11.37,7.82-22.54,15.76-32.87,24.32c-7.85,6.53-15.19,13.4-21.72,20.86l0.05,0.34
		C195.96,300.94,192.57,256.58,192.23,253.22z"/>
	<path class="st0" d="M83.51,533.01c5.16-10.61,11.28-20.89,18.03-30.93c8.76-12.99,18.59-25.65,28.73-38.24
		C74.2,483.32,79.36,519.62,83.51,533.01z"/>
	<path class="st0" d="M136.26,462.17c-11.19,13.77-22.1,27.64-31.74,41.95c-7.33,10.9-13.91,22.05-19.27,33.63l0.2,0.41
		C158.12,519.68,137.91,466.19,136.26,462.17z"/>
	<path class="st0" d="M91.83,460.95l0.18,0.41c72.68-18.48,52.47-71.95,50.82-75.98c-11.19,13.79-22.1,27.64-31.74,41.96
		C103.76,438.22,97.18,449.38,91.83,460.95z"/>
	<path class="st0" d="M478.45,964.29c38.72-66.35-21.2-104.31-35.24-112.05c1.72,17.68,6.29,35.11,12.42,52.44
		c6.6,18.57,14.91,36.96,23.44,55.41l-3.26,1.52c-8.59-18.57-16.98-37.1-23.58-55.7c-6.25-17.67-10.9-35.45-12.62-53.58
		C400.51,930.13,478.45,964.29,478.45,964.29z"/>
	<path class="st0" d="M160.6,314.39c-11.98,11.29-23.71,22.67-34.33,34.64c-8.06,9.11-15.48,18.55-21.83,28.53l0.12,0.39
		C173.62,369.94,161.6,318.29,160.6,314.39z"/>
	<path class="st0" d="M410.37,949.28c30.33-70.61-33.78-100.91-48.65-106.87c3.84,17.34,10.51,34.07,18.72,50.5
		c8.79,17.63,19.31,34.86,30.03,52.11l-3.05,1.91c-10.79-17.37-21.39-34.73-30.2-52.39c-8.36-16.74-15.16-33.85-19.08-51.61
		C328.84,924.96,410.37,949.28,410.37,949.28z"/>
	<path class="st0" d="M111.08,573.24c8.75-13,18.58-25.67,28.72-38.26c-56.07,19.48-50.89,55.79-46.76,69.18
		C98.19,593.54,104.32,583.26,111.08,573.24z"/>
	<path class="st0" d="M102.47,807.62c-16.67,0.12-32.96,1.62-48.57,5.65c10.97,9.64,61.96,49.26,106.53-4.59
		c0,0-53.36-56.26-107.58,1.45c15.99-4.14,32.62-5.68,49.61-5.81c17.92-0.14,36.34,1.32,54.86,2.92l-0.29,3.27
		C138.65,808.93,120.37,807.51,102.47,807.62z"/>
	<path class="st0" d="M122.19,749.28c0,0-41.29-63.36-103.39-17.58c16.06-1.16,32.28,0.3,48.58,3.19
		c17.21,3.03,34.61,7.66,52.07,12.46l-0.85,3.09c-17.33-4.76-34.6-9.37-51.78-12.4c-16.02-2.83-31.88-4.27-47.56-3.16
		C28.09,746.06,70.02,793.04,122.19,749.28z"/>
	<path class="st0" d="M210.69,861.51c0,0-64.52-51.28-113.06,17.59c16.22-6.76,33.51-10.87,51.39-13.53
		c18.86-2.8,38.46-4.02,58.18-5.11l0.2,3.49c-19.59,1.07-39.06,2.29-57.88,5.09c-17.54,2.62-34.47,6.62-50.31,13.18
		C112.17,890.75,171.74,924.86,210.69,861.51z"/>
	<path class="st0" d="M264.94,903.23c0,0-75.25-39.76-111.46,39.44c15.18-9.96,31.96-17.43,49.61-23.53
		c18.61-6.45,38.28-11.45,58.11-16.31l0.86,3.51c-19.69,4.82-39.22,9.78-57.8,16.22c-17.31,5.99-33.74,13.29-48.59,22.99
		C170.47,951.73,237.43,974.98,264.94,903.23z"/>
	<path class="st0" d="M89.99,695.18l-0.03-0.45c-10.49-7.25-21.79-13.51-33.61-19.18c-15.54-7.44-31.94-13.83-48.56-20.02
		C8.4,659.84,18.01,716.21,89.99,695.18z"/>
	<path class="st0" d="M335.26,942.23c0,0-79.59-30.1-105.72,53.01c13.84-11.78,29.55-21.27,46.32-29.52
		c17.66-8.72,36.57-16.12,55.65-23.41l1.27,3.38c-18.94,7.25-37.69,14.58-55.34,23.28c-16.44,8.11-31.84,17.39-45.36,28.86
		C247.5,1002.1,316.83,1016.86,335.26,942.23z"/>
	<path class="st0" d="M145.8,533.31c-11.19,13.78-22.1,27.64-31.74,41.96c-7.33,10.89-13.91,22.05-19.27,33.62l0.19,0.41
		C167.65,590.82,147.45,537.34,145.8,533.31z"/>
	<path class="st0" d="M54.56,501.23l0.24-0.37c-3.71-12.21-8.68-24.18-14.42-35.99c-7.55-15.53-16.43-30.76-25.6-45.98
		C12.59,422.65-14.85,472.79,54.56,501.23z"/>
	<path class="st0" d="M57.2,496.41c5.94-12.68,16.1-47.91-36.73-75.02c8.3,13.88,16.29,27.79,23.15,41.88
		C48.93,474.15,53.56,485.17,57.2,496.41z"/>
	<path class="st0" d="M60.12,426l0.31-0.32c-1.28-12.69-3.86-25.39-7.23-38.08c-4.42-16.7-10.21-33.37-16.28-50.07
		C34.06,340.79-2.51,384.67,60.12,426z"/>
	<path class="st0" d="M13.8,653.92c15.12,5.7,30,11.61,44.1,18.37c10.89,5.2,21.36,10.95,31.17,17.48
		C85.88,676.12,71.98,642.2,13.8,653.92z"/>
	<path class="st0" d="M56.75,573.02l0.17-0.41c-5.8-11.36-12.8-22.25-20.54-32.86c-10.18-13.94-21.61-27.36-33.32-40.69
		C1.56,503.14-16.58,557.35,56.75,573.02z"/>
	<path class="st0" d="M310.59,1033.45c11.78-13.83,25.79-25.71,41.03-36.56c16.06-11.43,33.55-21.75,51.23-32.01l1.8,3.14
		c-17.55,10.18-34.92,20.42-50.95,31.83c-14.94,10.63-28.66,22.27-40.2,35.74c15.92,1.77,86.71,5.24,93.04-71.37
		C406.53,964.22,323.18,947.24,310.59,1033.45z"/>
	<path class="st0" d="M515.44,967.86c-122.31,0-233.04-51.35-313.2-134.35C122.07,750.48,72.48,635.77,72.48,509.04
		c0-126.71,49.59-241.44,129.77-324.46c20.35-21.07,42.66-40.1,66.64-56.76v-7.15c-25.56,17.43-49.3,37.49-70.85,59.8
		c-81.21,84.1-131.43,200.26-131.43,328.57c0,128.29,50.22,244.47,131.43,328.56c81.23,84.11,193.46,136.15,317.41,136.15
		c0.11,0,0.22,0,0.32,0v-5.9C515.66,967.86,515.55,967.86,515.44,967.86z"/>
	<path class="st0" d="M395.05,1070.2c9.44-15.55,21.38-29.51,34.69-42.64c14.04-13.85,29.67-26.85,45.48-39.79l2.28,2.8
		c-15.7,12.85-31.21,25.73-45.22,39.57c-13.07,12.89-24.77,26.55-34.02,41.71c16.01-0.81,86.43-8.69,80.51-85.34
		C478.77,986.51,393.79,983.08,395.05,1070.2z"/>
	<path class="st0" d="M71.79,639.69l0.06-0.44c-8.5-9.5-18.03-18.25-28.21-26.51c-13.38-10.88-27.84-20.94-42.56-30.84
		C0.69,586.23-3.09,643.29,71.79,639.69z"/>
	<path class="st0" d="M282.91,151.02c-10.36,5.04-20.57,10.18-30.15,15.95c-7.3,4.38-14.22,9.15-20.55,14.49v0.28
		C280.04,190.89,282.78,153.85,282.91,151.02z"/>
	<path class="st0" d="M280.64,122.24v0.29c47.83,9.15,50.57-27.89,50.72-30.72c-10.36,5.03-20.59,10.18-30.17,15.96
		C293.88,112.15,286.97,116.9,280.64,122.24z"/>
	<path class="st0" d="M232.48,178.18c5.93-4.83,12.34-9.18,19.06-13.22c8.72-5.25,17.97-9.98,27.4-14.59
		C240.6,146.38,233.7,169.17,232.48,178.18z"/>
	<path class="st0" d="M330.4,915.71c34.33-68.76-27.95-102.7-42.45-109.49c2.86,17.53,8.55,34.63,15.79,51.49
		c7.79,18.11,17.29,35.92,27.01,53.77l-3.16,1.73c-9.78-17.98-19.37-35.91-27.15-54.05c-7.39-17.21-13.19-34.66-16.09-52.63
		C250.4,886.74,330.4,915.71,330.4,915.71z"/>
	<path class="st0" d="M253.24,119.49c9.1-0.47,32.44-5.44,31.73-44.27c-5.41,9.07-10.92,17.95-16.9,26.24
		C263.46,107.87,258.57,113.94,253.24,119.49z"/>
	<path class="st0" d="M299.97,105.73c8.72-5.24,17.97-9.97,27.4-14.59c-38.34-3.98-45.24,18.81-46.47,27.83
		C286.84,114.13,293.25,109.77,299.97,105.73z"/>
	<path class="st0" d="M180.9,792.97c54.04-50.85,8.88-102.51-2-113.54c-3.26,16.86-3.79,34.27-2.85,52
		c1.01,19.04,3.72,38.38,6.59,57.82l-3.46,0.52c-2.88-19.58-5.59-39.07-6.61-58.13c-0.96-18.08-0.41-35.86,2.95-53.13
		C118.01,739.86,180.9,792.97,180.9,792.97z"/>
	<path class="st0" d="M249.96,119.48c5.86-5.9,11.19-12.44,16.2-19.39c6.58-9.14,12.59-18.95,18.49-28.93
		c-2.83-0.09-40.02-0.5-34.98,48.29L249.96,119.48z"/>
	<path class="st0" d="M155.48,608.52c-7.16,14.02-12.06,29.23-15.76,45.11c-3.94,17.03-6.49,34.78-8.92,52.64l-3.17-0.44
		c2.45-18,5.02-35.86,8.98-52.93c3.75-16.17,8.78-31.72,16.14-46.07c-66.34,39.35-24.43,102.29-24.43,102.29
		C188.92,678.16,162.26,621.03,155.48,608.52z"/>
	<path class="st0" d="M246.53,861.27c46.07-58.21-6.13-102.72-18.51-112.04c-0.77,17.16,1.25,34.46,4.76,51.87
		c3.77,18.66,9.26,37.42,14.91,56.23l-3.33,1.01c-5.69-18.95-11.22-37.82-15-56.54c-3.57-17.74-5.62-35.41-4.81-52.99
		C176.57,817.94,246.53,861.27,246.53,861.27z"/>
	<path class="st0" d="M236.88,196.91c-12.4,6.02-24.63,12.19-36.14,19.1c-8.73,5.25-17.01,10.95-24.59,17.34v0.34
		C233.43,244.65,236.73,200.28,236.88,196.91z"/>
	<path class="st0" d="M176.46,229.43c7.12-5.8,14.8-11.01,22.86-15.86c10.43-6.26,21.51-11.94,32.79-17.47
		C186.19,191.34,177.94,218.63,176.46,229.43z"/>
	<path class="st0" d="M104.69,288.13c1.32-10.68,1.56-21.6,1.18-32.66c-0.53-14.55-2.16-29.34-4.04-44.2
		c-2.96,2.14-41.21,31.33,2.55,77.07L104.69,288.13z"/>
	<path class="st0" d="M82.53,353.91c8.21-9.2,25.64-36.37-12.16-72.63c3.52,13.82,6.76,27.57,9.02,41.22
		C81.14,333.03,82.28,343.51,82.53,353.91z"/>
	<path class="st0" d="M108.06,285.54c8.92-7.72,28.76-31.36-2.68-70.39c1.67,13.54,3.07,27,3.53,40.21
		C109.28,265.54,109.08,275.63,108.06,285.54z"/>
	<path class="st0" d="M9.11,500.48c10.62,12.19,20.94,24.47,30.17,37.13c7.13,9.75,13.65,19.77,19.21,30.2
		C62.1,554.27,65.89,517.8,9.11,500.48z"/>
	<path class="st0" d="M79.09,357.32l0.3-0.26c-0.06-11.26-1.25-22.6-3.14-34.02c-2.5-15.02-6.16-30.14-10.09-45.29
		C63.39,280.36,27.63,315.77,79.09,357.32z"/>
	<path class="st0" d="M63.62,421.79c8.29-11.29,25.04-43.89-21.58-80.73c5.48,15.24,10.63,30.43,14.66,45.59
		C59.81,398.35,62.24,410.06,63.62,421.79z"/>
	<path class="st0" d="M45.93,609.91c9.38,7.61,18.21,15.65,26.24,24.3c0.06-14.02-5.55-50.24-64.86-52.48
		C20.68,590.8,33.77,600.04,45.93,609.91z"/>
	<path class="st0" d="M213.15,150.11c8.9-2.04,31.02-10.98,23.66-49.09c-3.77,9.87-7.67,19.57-12.14,28.77
		C221.23,136.9,217.46,143.72,213.15,150.11z"/>
	<path class="st0" d="M133.52,235.77c4.02-9.04,7.17-18.57,9.78-28.4c3.44-12.96,5.95-26.41,8.27-39.98
		c-3.18,1.09-44.63,16.48-18.38,68.49L133.52,235.77z"/>
	<path class="st0" d="M209.92,150.66c4.76-6.82,8.89-14.19,12.63-21.89c4.91-10.15,9.15-20.85,13.23-31.68
		c-2.8,0.37-39.51,6.42-26.16,53.61L209.92,150.66z"/>
	<path class="st0" d="M177.46,185.44c9.48-4.2,32.22-18.98,15.75-59.9c-2.06,11.82-4.33,23.5-7.31,34.75
		C183.61,168.95,180.86,177.38,177.46,185.44z"/>
	<path class="st0" d="M137.16,234.39c9.92-4.39,33.7-19.85,16.49-62.64c-2.16,12.37-4.52,24.57-7.64,36.33
		C143.61,217.14,140.75,225.95,137.16,234.39z"/>
	<path class="st0" d="M173.96,186.77c3.84-8.65,6.84-17.77,9.35-27.18c3.28-12.38,5.68-25.25,7.92-38.23
		c-3.05,1.04-42.7,15.76-17.59,65.5L173.96,186.77z"/>
</g>
<linearGradient id="SVGID_1_" gradientUnits="userSpaceOnUse" x1="792.0604" y1="842.1521" x2="988.471" y2="842.1521">
	<stop  offset="5.373677e-04" style="stop-color:#262626"/>
	<stop  offset="1" style="stop-color:#333333"/>
</linearGradient>
<path class="st1" d="M986.43,894.37c-1.78,35.07-138.6,19.76-194.37,5.05l89.64-130.88c34.89,4.29,72.18,4.85,106.77,9.11
	C985.6,813.8,989.3,858.22,986.43,894.37z"/>
<linearGradient id="SVGID_2_" gradientUnits="userSpaceOnUse" x1="233.6606" y1="690.1965" x2="66.9359" y2="690.1965">
	<stop  offset="5.373677e-04" style="stop-color:#262626"/>
	<stop  offset="1" style="stop-color:#333333"/>
</linearGradient>
<path class="st2" d="M67.94,629.87c-0.86-25.58,68.09-32.87,113.42-23.25l52.29,171.23c-34.09-4.53-132.06-5.09-165.94-9.6
	C71.12,725.39,64.54,672.72,67.94,629.87z"/>
<path class="st3" d="M118.06,161.16l0,624.21c-0.03,2.3-0.51,43.39-0.51,43.39l413.04,200.34l411.91-204.29V52.63L118.06,161.16z"/>
<linearGradient id="SVGID_3_" gradientUnits="userSpaceOnUse" x1="142.1657" y1="148.2502" x2="918.4031" y2="148.2502">
	<stop  offset="0" style="stop-color:#FFFFFF"/>
	<stop  offset="0.5096" style="stop-color:#A6A6A6"/>
	<stop  offset="1" style="stop-color:#FFFFFF"/>
</linearGradient>
<path class="st4" d="M879.53,124.43l38.87-44.32v0L142.17,182.3c12.96,11.36,38.87,34.09,38.87,34.09L879.53,124.43z"/>
<linearGradient id="SVGID_4_" gradientUnits="userSpaceOnUse" x1="1100.8403" y1="262.5508" x2="728.5865" y2="634.8046">
	<stop  offset="0" style="stop-color:#A6A6A6"/>
	<stop  offset="1" style="stop-color:#FFFFFF"/>
</linearGradient>
<polygon class="st5" points="879.53,124.43 879.53,785.75 918.4,809.86 918.4,80.11 "/>
<linearGradient id="SVGID_5_" gradientUnits="userSpaceOnUse" x1="306.0724" y1="341.4265" x2="-12.2083" y2="659.7073">
	<stop  offset="0" style="stop-color:#A6A6A6"/>
	<stop  offset="1" style="stop-color:#FFFFFF"/>
</linearGradient>
<path class="st6" d="M181.04,785.75V216.39c0,0-25.91-22.73-38.87-34.09v603.32c-0.02,1.38-0.33,28.13-0.33,28.13l39.15-24.21
	C180.99,789.54,181.02,786.16,181.04,785.75z"/>
<linearGradient id="SVGID_6_" gradientUnits="userSpaceOnUse" x1="141.8367" y1="894.004" x2="918.4031" y2="894.004">
	<stop  offset="0" style="stop-color:#A6A6A6"/>
	<stop  offset="0.5108" style="stop-color:#FFFFFF"/>
	<stop  offset="1" style="stop-color:#B6B7BA"/>
</linearGradient>
<polygon class="st7" points="879.53,785.75 530.28,958.96 180.99,789.54 141.84,813.75 530.47,1002.26 918.4,809.86 "/>
<polygon class="st8" points="201.55,776.72 201.55,234.38 859.02,147.83 866.46,139.22 193.99,227.75 193.99,781.45 530.19,944.52 
	530.18,936.11 "/>
<polygon class="st9" points="859.02,147.83 859.02,773.03 530.18,936.11 530.19,944.52 530.22,944.53 866.58,777.72 866.58,139.21 
	866.46,139.22 "/>
<path class="st10" d="M942.44,683.46c-29.39-18.85-70.29-30.64-110.59-32.27c-139.94-5.63-281.21,15.13-428.47,45.9
	C297.92,719.13,174.88,708.47,118,671.54l0,113.88c-0.03,2.3-0.51,43.39-0.51,43.39l108.66,52.7c45.19,6.37,97.78,8.45,154.24,4.31
	c127.77-9.35,263.55-53.61,408.88-49.01c32.33,1.02,67.71,6.12,98.34,15.24l54.83-27.19V683.46z"/>
<g>
	<path class="st11" d="M250.81,514.37v-60.8h20.73c19.47,0,32.22,11.63,32.22,30.4c0,18.77-12.75,30.4-32.22,30.4H250.81
		L250.81,514.37z M345.76,424.43c6.8,0,12.31,5.51,12.31,12.32c0,6.8-5.51,12.31-12.31,12.31c-6.8,0-12.32-5.51-12.32-12.31
		C333.45,429.94,338.96,424.43,345.76,424.43L345.76,424.43z M788.49,424.43c6.8,0,12.32,5.51,12.32,12.32
		c0,6.8-5.51,12.31-12.32,12.31c-6.8,0-12.32-5.51-12.32-12.31C776.18,429.94,781.69,424.43,788.49,424.43L788.49,424.43z
		 M818.6,424.43c6.8,0,12.32,5.51,12.32,12.32c0,6.8-5.51,12.31-12.32,12.31c-6.8,0-12.32-5.51-12.32-12.31
		C806.29,429.94,811.8,424.43,818.6,424.43L818.6,424.43z M228.12,533h44.55c32.08,0,54.08-19.33,54.08-49.03
		c0-29.7-21.99-49.03-54.08-49.03h-44.55V533L228.12,533z M334.83,533h21.85v-75.37h-21.85V533L334.83,533z M385.81,467.58v-9.95
		h-20.87V533h21.85v-35.58c0-14.43,7.99-21.01,20.03-21.01c1.68,0,3.08,0.14,4.9,0.28v-20.17
		C400.1,456.52,391.14,460.3,385.81,467.58L385.81,467.58z M454.09,473.05c9.81,0,16.95,6.16,18.49,15.69h-37.12
		C437,479.07,444.14,473.05,454.09,473.05L454.09,473.05z M493.17,495.6c0-24.24-17.09-39.08-39.22-39.08
		c-22.98,0-40.21,16.25-40.21,38.8c0,22.41,16.95,38.8,43.01,38.8c13.59,0,24.1-4.2,31.1-12.19l-11.63-12.61
		c-5.18,4.9-10.93,7.28-18.91,7.28c-11.49,0-19.47-5.74-21.57-15.13h57.02C492.89,499.66,493.17,497.28,493.17,495.6L493.17,495.6z
		 M540.91,534.12c15.83,0,28.3-7.01,33.76-19.05l-16.95-9.25c-4.06,7.28-10.09,10.37-16.95,10.37c-11.07,0-19.75-7.7-19.75-20.87
		c0-13.17,8.68-20.87,19.75-20.87c6.86,0,12.89,3.22,16.95,10.37l16.95-9.1c-5.46-12.33-17.93-19.19-33.76-19.19
		c-24.51,0-42.03,16.11-42.03,38.8C498.88,518.01,516.39,534.12,540.91,534.12L540.91,534.12z M630.72,513.95
		c-2.38,1.82-5.6,2.8-8.83,2.8c-5.88,0-9.38-3.5-9.38-9.95v-30.68h18.77v-16.81h-18.77v-18.35h-21.85v18.35h-11.63v16.81h11.63
		v30.96c0,17.93,10.37,27.04,28.16,27.04c6.73,0,13.31-1.54,17.79-4.76L630.72,513.95L630.72,513.95z M674.95,516.19
		c-10.92,0-19.33-7.84-19.33-20.87c0-13.03,8.41-20.87,19.33-20.87c10.93,0,19.19,7.85,19.19,20.87
		C694.14,508.35,685.88,516.19,674.95,516.19L674.95,516.19z M674.95,534.12c-23.95,0-41.47-16.11-41.47-38.8
		c0-22.69,17.51-38.8,41.47-38.8s41.33,16.11,41.33,38.8C716.28,518.01,698.91,534.12,674.95,534.12L674.95,534.12z M743.39,467.58
		v-9.95h-20.87V533h21.85v-35.58c0-14.43,7.98-21.01,20.03-21.01c1.68,0,3.08,0.14,4.91,0.28v-20.17
		C757.68,456.52,748.72,460.3,743.39,467.58L743.39,467.58z M777.57,533h21.85v-75.37h-21.85V533L777.57,533z M807.67,533h21.85
		v-75.37h-21.85V533z"/>
	<polygon class="st12" points="334.83,415.02 356.69,415.02 356.69,409.16 777.57,353.75 777.57,415.02 799.42,415.02 
		799.42,350.87 799.42,350.87 799.42,328.83 799.42,328.83 777.57,331.71 334.83,389.99 334.83,390 334.83,415.02 	"/>
	<g>
		<path class="st13" d="M639.91,592.85c-1.52-1.51-2.28-3.41-2.28-5.68c0-2.33,0.76-4.21,2.28-5.64c1.52-1.43,3.39-2.15,5.61-2.15
			c2.22,0,4.09,0.72,5.61,2.15c1.52,1.44,2.28,3.32,2.28,5.64c0,2.27-0.76,4.17-2.28,5.68c-1.52,1.52-3.39,2.27-5.61,2.27
			C643.29,595.13,641.42,594.37,639.91,592.85z"/>
		<path class="st13" d="M666.94,592.24c-3.71-1.92-6.61-4.59-8.7-8c-2.09-3.41-3.13-7.28-3.13-11.61c0-4.33,1.04-8.2,3.13-11.61
			s4.99-6.08,8.7-8c3.71-1.92,7.9-2.88,12.56-2.88c4.61,0,8.63,0.96,12.07,2.88c3.44,1.92,5.95,4.67,7.52,8.24l-9.84,5.28
			c-2.28-4.01-5.56-6.01-9.84-6.01c-3.31,0-6.04,1.08-8.21,3.25c-2.17,2.17-3.25,5.12-3.25,8.85s1.08,6.69,3.25,8.85
			c2.17,2.17,4.9,3.25,8.21,3.25c4.33,0,7.61-2,9.84-6.01l9.84,5.36c-1.57,3.47-4.08,6.17-7.52,8.12
			c-3.44,1.95-7.47,2.92-12.07,2.92C674.84,595.13,670.66,594.17,666.94,592.24z"/>
		<path class="st13" d="M711.15,592.24c-3.66-1.92-6.52-4.59-8.58-8c-2.06-3.41-3.09-7.28-3.09-11.61c0-4.33,1.03-8.2,3.09-11.61
			c2.06-3.41,4.92-6.08,8.58-8c3.66-1.92,7.79-2.88,12.4-2.88c4.61,0,8.72,0.96,12.36,2.88c3.63,1.92,6.47,4.59,8.53,8
			s3.09,7.28,3.09,11.61c0,4.33-1.03,8.2-3.09,11.61c-2.06,3.41-4.9,6.08-8.53,8c-3.63,1.92-7.75,2.88-12.36,2.88
			C718.94,595.13,714.81,594.17,711.15,592.24z M731.55,581.44c2.09-2.19,3.13-5.13,3.13-8.81c0-3.68-1.05-6.62-3.13-8.81
			c-2.09-2.19-4.75-3.29-8.01-3.29c-3.25,0-5.93,1.1-8.05,3.29s-3.17,5.13-3.17,8.81c0,3.68,1.06,6.62,3.17,8.81
			c2.11,2.19,4.8,3.29,8.05,3.29C726.8,584.73,729.47,583.63,731.55,581.44z"/>
		<path class="st13" d="M821.46,554.97c3.22,3.22,4.84,8.05,4.84,14.5v25.01h-12.68v-23.07c0-3.46-0.72-6.05-2.15-7.76
			c-1.44-1.71-3.48-2.56-6.14-2.56c-2.98,0-5.34,0.96-7.07,2.88c-1.73,1.92-2.6,4.78-2.6,8.57v21.93h-12.68v-23.07
			c0-6.88-2.76-10.31-8.29-10.31c-2.93,0-5.26,0.96-6.99,2.88c-1.74,1.92-2.6,4.78-2.6,8.57v21.93H752.4v-43.69h12.11v5.04
			c1.63-1.84,3.62-3.25,5.97-4.22c2.36-0.97,4.94-1.46,7.76-1.46c3.09,0,5.88,0.61,8.37,1.83c2.49,1.22,4.5,2.99,6.01,5.32
			c1.79-2.27,4.05-4.03,6.79-5.28c2.74-1.24,5.73-1.87,8.98-1.87C813.89,550.13,818.23,551.75,821.46,554.97z"/>
	</g>
	<polygon class="st12" points="622.68,576.55 356.69,611.57 356.69,550.3 334.83,550.3 334.83,614.45 334.83,614.45 334.83,636.49 
		334.83,636.49 356.69,633.61 622.68,598.6 	"/>
	<g>
		<path class="st14" d="M353.43,316.72l-0.91,14.04l24.03-3.21l-0.71,9.88l-23.88,3.19l-1.25,19.36l-12.05,1.61l3.43-53.14
			l39.11-5.23l-0.71,9.88L353.43,316.72z"/>
		<path class="st14" d="M387.42,314.58l11.46-1.53l-2.59,40.84l-11.46,1.53L387.42,314.58z M389.29,306.91
			c-1.41-0.99-2.23-2.32-2.45-4c-0.26-1.97,0.22-3.7,1.45-5.2c1.23-1.49,2.98-2.39,5.25-2.7c2.02-0.27,3.73,0.07,5.14,1.01
			c1.41,0.94,2.22,2.22,2.43,3.85c0.28,2.12-0.2,3.93-1.46,5.43c-1.25,1.5-3.02,2.4-5.28,2.7
			C392.4,308.27,390.71,307.9,389.29,306.91z"/>
		<path class="st14" d="M443.61,310.04c2.93,1.99,4.68,5.16,5.26,9.49c0.22,1.63,0.26,3.25,0.12,4.88l-1.49,22.63l-11.54,1.54
			l1.44-21.87c0.08-0.87,0.06-1.79-0.07-2.78c-0.28-2.07-1.05-3.57-2.33-4.5c-1.28-0.93-3.05-1.25-5.32-0.94
			c-2.96,0.4-5.3,1.57-7.02,3.53c-1.72,1.96-2.7,4.69-2.93,8.18l-1.29,20.72l-11.54,1.54l2.59-40.84l10.94-1.46l-0.31,4.41
			c3.11-3.73,7.26-5.94,12.44-6.63C437.01,307.34,440.69,308.05,443.61,310.04z"/>
		<path class="st14" d="M501.64,283.95l-3.61,56.33l-10.94,1.46l0.28-4.1c-2.94,3.5-6.81,5.58-11.59,6.22
			c-3.1,0.42-6.06,0.08-8.86-1c-2.8-1.08-5.16-2.86-7.07-5.34c-1.91-2.48-3.11-5.54-3.6-9.19c-0.59-4.39-0.14-8.47,1.33-12.26
			c1.48-3.78,3.76-6.9,6.84-9.34c3.08-2.44,6.65-3.94,10.69-4.48c2.91-0.39,5.52-0.24,7.85,0.46c2.32,0.69,4.26,1.91,5.8,3.67
			l1.35-20.88L501.64,283.95z M483.89,331.37c1.63-1.35,2.8-3.07,3.52-5.18c0.72-2.1,0.91-4.44,0.57-7
			c-0.36-2.71-1.45-4.75-3.26-6.11c-1.81-1.36-4.15-1.85-7.01-1.47c-2.27,0.3-4.21,1.13-5.84,2.48c-1.63,1.34-2.8,3.07-3.52,5.17
			c-0.72,2.11-0.91,4.44-0.57,7c0.36,2.71,1.45,4.75,3.26,6.11c1.81,1.36,4.15,1.85,7.01,1.47
			C480.32,333.54,482.27,332.71,483.89,331.37z"/>
		<path class="st14" d="M573.82,289.65l-2.59,40.84l-10.94,1.46l0.24-4.4c-1.51,1.86-3.32,3.34-5.43,4.45
			c-2.11,1.11-4.4,1.83-6.86,2.16c-4.34,0.58-7.96-0.14-10.86-2.16c-2.9-2.02-4.64-5.18-5.22-9.47c-0.22-1.63-0.26-3.25-0.12-4.88
			l1.42-22.62l11.54-1.54l-1.37,21.86c-0.07,0.96-0.04,1.94,0.09,2.92c0.55,4.14,3.05,5.92,7.48,5.32c2.91-0.39,5.2-1.56,6.87-3.52
			c1.67-1.95,2.62-4.68,2.86-8.17l1.37-20.73L573.82,289.65z"/>
		<path class="st14" d="M586.91,327.83c-3.18-0.35-5.72-1.03-7.61-2.03l3.32-8.95c1.88,0.91,4.11,1.53,6.69,1.89
			c2.58,0.36,5.13,0.37,7.64,0.03c2.61-0.35,4.51-0.94,5.71-1.78c1.19-0.84,1.71-1.87,1.54-3.1c-0.13-0.98-0.8-1.63-1.99-1.92
			c-1.19-0.29-3.08-0.52-5.66-0.67c-2.93-0.16-5.36-0.43-7.3-0.83c-1.93-0.39-3.68-1.23-5.23-2.5c-1.55-1.27-2.49-3.17-2.83-5.68
			c-0.59-4.39,0.79-8.06,4.13-11.01c3.34-2.96,8-4.83,13.96-5.63c2.76-0.37,5.49-0.43,8.18-0.19c2.69,0.24,5.02,0.76,6.98,1.55
			l-3.02,8.98c-3.52-1.58-7.58-2.07-12.16-1.46c-2.51,0.34-4.38,0.96-5.58,1.87c-1.21,0.92-1.73,1.94-1.58,3.07
			c0.14,1.04,0.81,1.71,2,2.03c1.2,0.32,3.16,0.57,5.9,0.75c2.88,0.17,5.26,0.44,7.14,0.81c1.88,0.38,3.58,1.19,5.11,2.44
			c1.52,1.25,2.45,3.11,2.78,5.57c0.59,4.44-0.81,8.11-4.21,11.03c-3.4,2.91-8.06,4.77-13.97,5.56
			C593.41,328.13,590.09,328.18,586.91,327.83z"/>
		<path class="st14" d="M653.98,317.77c-3.23-1.07-5.85-2.84-7.86-5.31c-2.01-2.47-3.25-5.48-3.73-9.02
			c-0.59-4.39-0.08-8.47,1.52-12.25c1.6-3.77,4.09-6.92,7.47-9.43c3.38-2.51,7.36-4.07,11.94-4.68c4.04-0.54,7.66-0.27,10.87,0.8
			c3.2,1.08,5.81,2.85,7.82,5.31c2.01,2.47,3.25,5.47,3.73,9.02c0.59,4.39,0.09,8.47-1.49,12.24c-1.58,3.77-4.07,6.92-7.47,9.43
			c-3.4,2.51-7.4,4.07-11.98,4.69C660.82,319.11,657.21,318.84,653.98,317.77z M670.04,306.48c1.63-1.35,2.8-3.07,3.52-5.17
			c0.72-2.1,0.91-4.44,0.57-7c-0.36-2.71-1.44-4.75-3.23-6.12c-1.79-1.37-4.11-1.86-6.97-1.48c-2.27,0.3-4.21,1.13-5.84,2.48
			c-1.63,1.34-2.8,3.07-3.52,5.17c-0.72,2.11-0.91,4.44-0.57,7c0.36,2.71,1.45,4.75,3.26,6.11c1.81,1.36,4.15,1.85,7.01,1.47
			C666.49,308.64,668.41,307.82,670.04,306.48z"/>
		<path class="st14" d="M728.83,271.9c2.93,1.99,4.68,5.16,5.26,9.49c0.22,1.63,0.26,3.25,0.13,4.88l-1.49,22.63l-11.53,1.54
			l1.44-21.87c0.08-0.87,0.06-1.79-0.07-2.78c-0.28-2.07-1.05-3.57-2.33-4.5c-1.28-0.93-3.05-1.25-5.32-0.94
			c-2.96,0.4-5.3,1.57-7.02,3.53c-1.72,1.96-2.7,4.69-2.93,8.18l-1.29,20.72l-11.54,1.54l2.59-40.84l10.94-1.46l-0.31,4.41
			c3.11-3.73,7.26-5.94,12.43-6.63C722.23,269.21,725.91,269.91,728.83,271.9z"/>
	</g>
</g>
<linearGradient id="SVGID_7_" gradientUnits="userSpaceOnUse" x1="96.62" y1="988.0048" x2="1056.2347" y2="988.0048" gradientTransform="matrix(0.9969 0.0791 -0.0791 0.9969 36.3975 -274.8467)">
	<stop  offset="0" style="stop-color:#B8B8B8"/>
	<stop  offset="0.04" style="stop-color:#7E7E7E"/>
	<stop  offset="0.15" style="stop-color:#EFEFEF"/>
	<stop  offset="0.23" style="stop-color:#CECECE"/>
	<stop  offset="0.51" style="stop-color:#D8D8D8"/>
	<stop  offset="0.81" style="stop-color:#CBCBCB"/>
	<stop  offset="0.86" style="stop-color:#ECECEC"/>
	<stop  offset="0.95" style="stop-color:#7B7B7B"/>
	<stop  offset="1" style="stop-color:#BABABA"/>
</linearGradient>
<path class="st15" d="M67.96,628.65c23.12,64.86,192.06,85.77,328.62,55.24c153.16-34.23,300.23-57.95,446.28-54.1
	c70.65,1.87,132.34,33.61,147.27,80.75c-1.04,62.12,0.91,121.75-3.72,184.83c-12.82-46.43-107.78-75.78-185.35-77.16
	c-151.67-2.69-292.58,51.26-425.72,62.87c-183.71,16.03-312.09-21.04-311.18-76C66.74,745.12,63.72,684.66,67.96,628.65z"/>
<g>
	<path class="st3" d="M150.04,823.3c-3.07,2.9-7.54,4.05-13.4,3.32c0.02,3.43,0.04,6.86,0.05,10.3c-3.12-0.94-6.23-1.93-9.34-2.95
		c-0.02-3.31-0.04-6.63-0.05-9.94c-3.89-1.59-7.58-3.66-11.05-6.18c-3.48-2.52-6.36-5.18-8.64-7.92c1.66-3.88,3.31-7.78,4.98-11.68
		c2.44,2.83,5.27,5.41,8.49,7.71c3.22,2.3,6.38,3.95,9.5,4.95c5.92,1.9,8.87,0.99,8.85-2.53c-0.01-1.86-0.86-3.48-2.55-4.9
		c-1.69-1.41-4.41-3.2-8.15-5.42c-4.1-2.4-7.53-4.73-10.28-6.92c-2.75-2.19-5.12-5.01-7.1-8.42c-1.98-3.41-2.98-7.4-3-11.93
		c-0.03-5.34,1.55-9.29,4.74-11.89c3.19-2.61,7.81-3.24,13.87-2.05c-0.02-3.41-0.04-6.81-0.05-10.22c3.11,1.06,6.22,2.08,9.33,3.06
		c0.02,3.34,0.04,6.68,0.05,10.02c2.96,1.24,5.8,2.71,8.54,4.43c2.73,1.72,5.17,3.6,7.31,5.66c-1.56,4.11-3.12,8.21-4.68,12.3
		c-5.21-4.8-10.26-8-15.13-9.57c-3.06-0.99-5.29-1.2-6.68-0.59c-1.39,0.61-2.09,1.77-2.08,3.51c0.01,1.74,0.84,3.32,2.51,4.75
		c1.66,1.43,4.34,3.22,8.03,5.32c4.16,2.37,7.6,4.51,10.33,6.5c2.73,1.99,5.11,4.56,7.12,7.72c2.02,3.16,3.04,6.98,3.06,11.49
		C154.64,816.37,153.11,820.4,150.04,823.3z"/>
	<path class="st3" d="M198.29,825.38c0.03,4.82,0.05,9.64,0.08,14.46c-14.24-2.21-28.44-5.08-42.62-8.7
		c-0.02-3.83-0.04-7.65-0.06-11.48c6.77-5.81,13.55-11.77,20.34-17.88c1.96-1.8,3.29-3.43,3.96-4.86c0.67-1.43,1-2.95,0.99-4.55
		c-0.01-2.09-0.62-3.84-1.83-5.25c-1.2-1.41-2.96-2.36-5.25-2.86c-2.03-0.44-3.89-0.32-5.58,0.37c-1.69,0.69-3.07,1.92-4.15,3.69
		c-3.84-3.44-7.68-6.94-11.51-10.5c2.11-3.63,5.08-6.14,8.92-7.59c3.84-1.45,8.39-1.58,13.65-0.45c4.17,0.9,7.86,2.43,11.08,4.63
		c3.21,2.2,5.73,4.93,7.55,8.22c1.82,3.29,2.74,6.89,2.76,10.82c0.02,3.5-0.6,6.7-1.86,9.59c-1.26,2.89-3.71,6-7.34,9.27
		c-3.42,3.12-6.85,6.21-10.26,9.26C184.19,823.01,191.24,824.27,198.29,825.38z"/>
	<path class="st3" d="M212,839.09c-3.68-3.1-6.56-7.35-8.65-12.72c-2.09-5.37-3.16-11.53-3.2-18.47
		c-0.04-6.94,0.95-12.78,2.99-17.53c2.03-4.76,4.88-8.19,8.52-10.34c3.64-2.15,7.82-2.96,12.53-2.45c4.66,0.5,8.83,2.2,12.52,5.13
		c3.68,2.93,6.57,6.96,8.68,12.14c2.1,5.18,3.17,11.21,3.21,18.11c0.04,6.91-0.96,12.82-3,17.74c-2.04,4.92-4.89,8.57-8.55,10.92
		c-3.66,2.35-7.81,3.31-12.47,2.85C219.87,843.99,215.68,842.19,212,839.09z M230.72,825.73c1.53-2.83,2.27-7.46,2.24-13.89
		c-0.04-6.43-0.84-11.19-2.4-14.3c-1.57-3.11-3.65-4.8-6.27-5.07c-2.67-0.28-4.77,0.96-6.29,3.75c-1.53,2.79-2.27,7.4-2.23,13.84
		c0.04,6.44,0.84,11.24,2.4,14.39c1.56,3.15,3.68,4.87,6.35,5.14C227.12,829.85,229.19,828.56,230.72,825.73z"/>
	<path class="st3" d="M265.87,828.78c1.69,1.93,2.55,4.42,2.57,7.47c0.01,1.4-0.14,2.8-0.45,4.2c-0.31,1.4-1,3.49-2.09,6.27
		c-1.63,4.41-3.26,8.82-4.89,13.23c-3.13-0.1-6.25-0.22-9.37-0.37c1.21-4.92,2.41-9.84,3.61-14.77c-1.48-0.86-2.62-2.09-3.45-3.68
		c-0.82-1.6-1.24-3.44-1.25-5.51c-0.02-3.05,0.81-5.48,2.48-7.3c1.67-1.81,3.81-2.66,6.44-2.57
		C262.05,825.84,264.18,826.84,265.87,828.78z"/>
	<path class="st3" d="M282.1,843.22c-3.7-2.61-6.6-6.46-8.71-11.52c-2.11-5.06-3.18-11.04-3.22-17.93
		c-0.04-6.89,0.96-12.83,3.01-17.83c2.05-5,4.9-8.79,8.57-11.4c3.66-2.61,7.86-3.94,12.6-4.03c4.68-0.08,8.88,1.11,12.58,3.59
		c3.71,2.48,6.61,6.16,8.73,11.08c2.11,4.91,3.19,10.79,3.23,17.66c0.04,6.87-0.96,12.87-3.01,17.99
		c-2.05,5.12-4.91,9.08-8.59,11.84c-3.67,2.76-7.85,4.22-12.54,4.32C290.01,847.1,285.8,845.83,282.1,843.22z M300.92,827.61
		c1.53-3,2.28-7.69,2.24-14.08c-0.04-6.39-0.85-11.03-2.42-13.94c-1.57-2.91-3.67-4.33-6.31-4.28c-2.68,0.05-4.79,1.55-6.33,4.52
		c-1.53,2.97-2.28,7.65-2.24,14.04c0.04,6.4,0.84,11.07,2.41,14c1.57,2.94,3.7,4.38,6.38,4.33
		C297.3,832.14,299.38,830.61,300.92,827.61z"/>
	<path class="st3" d="M333.85,841.12c-3.71-2.33-6.62-5.95-8.74-10.83c-2.11-4.88-3.19-10.76-3.23-17.62
		c-0.04-6.87,0.96-12.86,3.01-18c2.05-5.14,4.92-9.14,8.59-12.01c3.68-2.88,7.89-4.51,12.64-4.93c4.7-0.41,8.91,0.49,12.62,2.72
		c3.71,2.23,6.63,5.72,8.75,10.48c2.12,4.77,3.2,10.57,3.24,17.41c0.04,6.85-0.96,12.89-3.02,18.13c-2.06,5.24-4.93,9.36-8.61,12.36
		c-3.68,3-7.88,4.72-12.57,5.15C341.79,844.41,337.56,843.45,333.85,841.12z M352.72,824.23c1.54-3.09,2.29-7.82,2.25-14.19
		c-0.04-6.37-0.85-10.94-2.42-13.73c-1.58-2.79-3.68-4.07-6.32-3.83c-2.69,0.24-4.81,1.88-6.35,4.95
		c-1.54,3.07-2.29,7.79-2.25,14.16c0.04,6.37,0.85,10.97,2.42,13.79c1.57,2.82,3.71,4.11,6.4,3.86
		C349.09,829,351.18,827.32,352.72,824.23z"/>
	<path class="st3" d="M385.74,835.68c-3.72-2.12-6.64-5.56-8.76-10.3c-2.12-4.74-3.2-10.54-3.24-17.38
		c-0.04-6.84,0.96-12.89,3.02-18.14c2.06-5.25,4.93-9.4,8.61-12.48c3.69-3.08,7.91-4.94,12.67-5.6c4.71-0.66,8.93,0.03,12.65,2.08
		c3.72,2.05,6.64,5.39,8.77,10.05c2.12,4.66,3.21,10.4,3.25,17.23c0.05,6.83-0.96,12.91-3.02,18.22c-2.06,5.32-4.94,9.56-8.63,12.73
		c-3.69,3.16-7.89,5.09-12.6,5.76C393.7,838.52,389.45,837.79,385.74,835.68z M404.65,817.83c1.54-3.16,2.29-7.92,2.25-14.27
		c-0.04-6.35-0.85-10.88-2.43-13.58c-1.58-2.71-3.69-3.87-6.34-3.5c-2.7,0.38-4.82,2.14-6.36,5.28c-1.54,3.15-2.29,7.89-2.25,14.25
		c0.04,6.36,0.85,10.9,2.43,13.62c1.58,2.72,3.72,3.9,6.42,3.52C401.01,822.77,403.11,821,404.65,817.83z"/>
	<path class="st3" d="M487.42,788.41c4.64-0.87,9.28-1.75,13.92-2.64c0.05,8.75,0.12,17.5,0.17,26.25
		c-3.17,3.2-6.81,5.89-10.94,8.06c-4.13,2.17-8.26,3.64-12.4,4.41c-5.84,1.08-11.09,0.64-15.77-1.32
		c-4.68-1.97-8.37-5.23-11.05-9.78c-2.69-4.55-4.04-10-4.08-16.34c-0.04-6.34,1.25-12.25,3.86-17.73
		c2.61-5.48,6.28-10.03,10.98-13.69c4.7-3.65,10.02-6.03,15.96-7.13c5.2-0.96,9.87-0.84,14.02,0.37c4.15,1.21,7.62,3.42,10.4,6.64
		c-3.32,4.08-6.64,8.15-9.96,12.23c-3.79-4-8.32-5.5-13.57-4.53c-4.77,0.89-8.6,3.23-11.5,7.05c-2.89,3.82-4.32,8.48-4.29,13.97
		c0.02,3.5,0.71,6.51,2.05,9.02c1.34,2.51,3.21,4.31,5.61,5.42c2.39,1.1,5.13,1.37,8.21,0.8c3.03-0.56,5.85-1.79,8.5-3.68
		C487.49,800,487.45,794.21,487.42,788.41z"/>
	<path class="st3" d="M514.76,809.85c-4.62-4.25-6.96-11.08-7.02-20.49c-0.08-11.71-0.15-23.42-0.23-35.12
		c5.25-1.01,10.5-2.02,15.75-3.03c0.08,11.53,0.15,23.05,0.22,34.58c0.06,10.14,3.63,14.53,10.68,13.17
		c7-1.35,10.47-7.09,10.4-17.23c-0.07-11.53-0.15-23.05-0.22-34.58c5.17-0.99,10.34-1.98,15.51-2.96
		c0.08,11.71,0.15,23.42,0.23,35.13c0.06,9.42-2.18,17.12-6.74,23.12c-4.56,6-10.97,9.8-19.24,11.39
		C525.83,815.42,519.38,814.1,514.76,809.85z"/>
	<path class="st3" d="M602.3,787.58c-7.84,1.36-15.69,2.77-23.54,4.21c-1.43,4.37-2.86,8.75-4.3,13.12
		c-5.36,0.99-10.71,1.99-16.07,3c8.06-22.67,16.11-45.33,24.17-67.96c5.17-0.95,10.34-1.88,15.51-2.79
		c8.35,19.69,16.7,39.43,25.05,59.26c-5.46,0.88-10.91,1.79-16.37,2.72C605.27,795.29,603.78,791.44,602.3,787.58z M597.6,775.16
		c-2.43-6.34-4.86-12.68-7.29-19.02c-2.34,7.19-4.68,14.39-7.03,21.58C588.06,776.86,592.83,776,597.6,775.16z"/>
	<path class="st3" d="M648.94,775.6c-2.86,0.41-5.72,0.83-8.58,1.26c0.04,5.62,0.07,11.25,0.11,16.87
		c-5.24,0.78-10.49,1.6-15.73,2.44c-0.13-21.16-0.27-42.31-0.41-63.47c8.48-1.38,16.95-2.69,25.42-3.91
		c5.03-0.73,9.4-0.37,13.12,1.04c3.72,1.41,6.59,3.77,8.62,7.06c2.04,3.29,3.06,7.33,3.09,12.12c0.03,4.6-0.88,8.73-2.74,12.38
		c-1.85,3.65-4.52,6.67-8,9.06c4.03,6.14,8.07,12.3,12.11,18.48c-5.61,0.67-11.21,1.38-16.82,2.13
		C655.73,785.9,652.33,780.74,648.94,775.6z M656.21,744.5c-1.65-1.41-4.09-1.88-7.32-1.42c-2.91,0.42-5.82,0.85-8.74,1.29
		c0.04,6.2,0.08,12.4,0.12,18.6c2.91-0.44,5.82-0.87,8.74-1.29c3.23-0.46,5.66-1.6,7.29-3.44c1.63-1.83,2.43-4.23,2.42-7.19
		C658.7,748.1,657.86,745.91,656.21,744.5z"/>
	<path class="st3" d="M719.74,772.38c-7.81,0.55-15.62,1.21-23.44,1.98c-1.43,4.27-2.85,8.53-4.28,12.81
		c-5.34,0.55-10.68,1.14-16.02,1.77c8.04-22.17,16.07-44.27,24.1-66.28c5.15-0.5,10.3-0.95,15.44-1.35
		c8.31,20.6,16.62,41.36,24.92,62.3c-5.43,0.23-10.86,0.52-16.29,0.86C722.69,780.44,721.21,776.4,719.74,772.38z M715.06,759.42
		c-2.42-6.62-4.83-13.22-7.25-19.81c-2.33,7-4.67,14.01-7,21.03C705.57,760.19,710.31,759.78,715.06,759.42z"/>
	<path class="st3" d="M794.23,719.48c0.12,21.37,0.25,42.74,0.38,64.12c-4.28-0.19-8.56-0.33-12.84-0.43
		c-8.18-11.56-16.38-22.92-24.58-34.12c0.07,11.35,0.14,22.71,0.21,34.06c-5.11,0.09-10.21,0.23-15.32,0.44
		c-0.13-21.29-0.26-42.57-0.39-63.85c4.3-0.19,8.59-0.34,12.88-0.45c8.2,11.14,16.4,22.46,24.59,33.96
		c-0.07-11.37-0.13-22.75-0.2-34.12C784.04,719.15,789.14,719.28,794.23,719.48z"/>
	<path class="st3" d="M813.53,734.97c-5.64-0.43-11.28-0.76-16.92-1.01c-0.03-4.79-0.06-9.59-0.08-14.38
		c16.46,0.71,32.89,2.14,49.27,4.43c0.03,4.82,0.06,9.63,0.08,14.45c-5.59-0.79-11.19-1.48-16.79-2.07
		c0.1,16.63,0.19,33.26,0.29,49.9c-5.18-0.58-10.37-1.07-15.56-1.49C813.72,768.18,813.62,751.57,813.53,734.97z"/>
	<path class="st3" d="M892.32,783.48c0.03,4.72,0.05,9.44,0.08,14.16c-14.62-3.72-29.27-6.64-43.95-8.86
		c-0.12-21.49-0.24-42.97-0.36-64.45c14.35,2.07,28.67,4.81,42.95,8.29c0.03,4.72,0.05,9.44,0.08,14.15
		c-9.19-2.26-18.39-4.2-27.59-5.86c0.02,3.63,0.04,7.25,0.06,10.88c8.11,1.47,16.22,3.16,24.31,5.1c0.02,4.56,0.05,9.12,0.07,13.69
		c-8.09-1.95-16.2-3.65-24.31-5.14c0.02,3.94,0.04,7.87,0.07,11.81C873.26,779.01,882.8,781.08,892.32,783.48z"/>
	<path class="st3" d="M942.16,799.34c0.02,4.75,0.05,9.5,0.07,14.25c-14.53-5.65-29.1-10.4-43.71-14.35
		c-0.12-21.61-0.23-43.22-0.35-64.82c14.28,3.74,28.51,8.24,42.72,13.6c0.02,4.75,0.05,9.5,0.07,14.24
		c-9.13-3.46-18.28-6.57-27.44-9.35c0.02,3.65,0.04,7.3,0.06,10.95c8.07,2.46,16.13,5.17,24.18,8.16c0.02,4.59,0.05,9.18,0.07,13.77
		c-8.05-3-16.11-5.73-24.18-8.21c0.02,3.96,0.04,7.92,0.06,11.88C923.22,792.4,932.7,795.68,942.16,799.34z"/>
</g>
<g>
	<g transform="translate(0,-952.36218)">
		<path class="st16" d="M539.9,1160.57l8.45,18.19l20.33,2.22l-15.11,13.46l4.12,19.56l-17.78-9.87l-17.78,9.87l4.12-19.56
			l-15.11-13.46l20.33-2.22L539.9,1160.57z"/>
	</g>
	<g transform="translate(0,-952.36218)">
		<path class="st16" d="M457.13,1171.44l8.45,18.19l20.33,2.22l-15.11,13.46l4.12,19.56l-17.78-9.87l-17.78,9.87l4.12-19.56
			l-15.11-13.46l20.33-2.22L457.13,1171.44z"/>
	</g>
	<g transform="translate(0,-952.36218)">
		<path class="st16" d="M374.36,1182.37l8.45,18.19l20.33,2.22l-15.11,13.46l4.12,19.56l-17.78-9.87l-17.78,9.87l4.12-19.56
			l-15.11-13.46l20.33-2.22L374.36,1182.37z"/>
	</g>
	<g transform="translate(0,-952.36218)">
		<path class="st16" d="M622.67,1149.6l8.45,18.19l20.33,2.22l-15.11,13.46l4.12,19.56l-17.78-9.87l-17.78,9.87l4.12-19.56
			l-15.11-13.46l20.33-2.22L622.67,1149.6z"/>
	</g>
	<g transform="translate(0,-952.36218)">
		<path class="st16" d="M705.44,1138.81l8.45,18.19l20.33,2.22l-15.11,13.46l4.12,19.56l-17.78-9.87l-17.78,9.87l4.12-19.56
			l-15.11-13.46l20.33-2.22L705.44,1138.81z"/>
	</g>
</g>
<g>
	<path class="st8" d="M327.2,740.97c1.55,1.89,2.34,4.29,2.38,7.22c0.04,4.14-1.53,7.45-4.73,9.9c-3.19,2.45-7.88,3.87-14.04,4.18
		c-8.15,0.4-16.29,0.66-24.44,0.76c-0.17-15.75-0.34-31.51-0.51-47.26c7.7-0.08,15.39-0.31,23.09-0.67
		c5.76-0.27,10.2,0.56,13.3,2.56c3.11,2,4.68,4.88,4.72,8.65c0.02,2.29-0.5,4.38-1.59,6.26c-1.08,1.88-2.61,3.4-4.58,4.56
		C323.52,737.8,325.65,739.08,327.2,740.97z M296.82,723.78c0.04,3.71,0.08,7.42,0.12,11.14c3.62-0.1,7.25-0.24,10.87-0.4
		c2.7-0.12,4.74-0.7,6.13-1.72c1.38-1.02,2.07-2.45,2.05-4.3c-0.02-1.84-0.73-3.19-2.14-4.03c-1.41-0.85-3.46-1.2-6.16-1.08
		C304.06,723.54,300.44,723.67,296.82,723.78z M316.41,752.3c1.45-1.03,2.17-2.54,2.15-4.52c-0.04-3.92-2.97-5.68-8.77-5.4
		c-4.25,0.2-8.51,0.37-12.76,0.49c0.04,3.89,0.08,7.78,0.13,11.68c4.25-0.12,8.51-0.29,12.76-0.49
		C312.79,753.92,314.96,753.33,316.41,752.3z"/>
	<path class="st8" d="M362.88,725.02c3.04,2.32,4.6,6.17,4.66,11.56c0.07,6.9,0.15,13.8,0.22,20.7c-3.29,0.4-6.57,0.78-9.86,1.15
		c-0.02-1.51-0.03-3.01-0.05-4.52c-1.95,3.59-5.62,5.68-11.02,6.21c-2.79,0.27-5.22,0.02-7.27-0.74c-2.06-0.76-3.64-1.93-4.74-3.51
		c-1.1-1.57-1.66-3.42-1.68-5.53c-0.04-3.37,1.21-6.13,3.73-8.27c2.52-2.15,6.44-3.46,11.75-3.99c2.79-0.28,5.58-0.57,8.37-0.88
		c-0.02-2.29-0.74-3.98-2.15-5.07c-1.41-1.09-3.51-1.48-6.3-1.21c-1.94,0.19-3.84,0.68-5.7,1.46c-1.86,0.78-3.44,1.74-4.73,2.89
		c-1.29-2.34-2.57-4.69-3.86-7.03c1.97-1.56,4.33-2.84,7.09-3.85c2.76-1.02,5.6-1.67,8.53-1.97
		C355.49,721.85,359.83,722.69,362.88,725.02z M354.16,751.03c1.39-0.98,2.36-2.31,2.93-4c-0.01-1.24-0.03-2.47-0.04-3.71
		c-2.41,0.26-4.82,0.52-7.23,0.76c-4.32,0.44-6.47,2.05-6.44,4.88c0.01,1.35,0.55,2.37,1.62,3.05c1.07,0.69,2.52,0.94,4.37,0.75
		C351.18,752.59,352.78,752.01,354.16,751.03z"/>
	<path class="st8" d="M382.1,753.57c-3.1-1.17-5.53-3.07-7.3-5.68c-1.76-2.61-2.67-5.71-2.7-9.31c-0.04-3.6,0.79-6.92,2.5-9.97
		c1.7-3.05,4.09-5.58,7.15-7.6c3.07-2.01,6.54-3.3,10.41-3.86c3.83-0.56,7.18-0.27,10.06,0.89c2.88,1.15,4.98,3.1,6.32,5.86
		c-2.71,1.9-5.42,3.78-8.12,5.66c-1.93-3.03-4.67-4.28-8.23-3.76c-2.75,0.4-5.01,1.62-6.79,3.67c-1.78,2.05-2.66,4.62-2.62,7.72
		c0.03,3.1,0.96,5.43,2.78,6.97c1.82,1.55,4.1,2.12,6.85,1.72c3.6-0.53,6.31-2.6,8.12-6.21c2.74,1.07,5.48,2.12,8.22,3.17
		c-1.28,3.08-3.33,5.66-6.17,7.72c-2.84,2.06-6.18,3.38-10,3.94C388.69,755.05,385.2,754.74,382.1,753.57z"/>
	<path class="st8" d="M428.44,733.92c-1.67,1.96-3.34,3.91-5.01,5.86c0.03,3.08,0.07,6.15,0.1,9.23c-3.51,0.6-7.02,1.19-10.54,1.76
		c-0.18-16.66-0.36-33.33-0.54-49.99c3.51-0.57,7.02-1.16,10.54-1.76c0.1,9.43,0.2,18.86,0.31,28.3
		c5.08-5.73,10.16-11.48,15.24-17.26c4.19-0.76,8.38-1.53,12.56-2.32c-4.99,6.07-9.98,12.11-14.96,18.14
		c5.57,5.98,11.14,11.92,16.71,17.85c-4.26,0.8-8.51,1.59-12.77,2.37C436.2,742.05,432.32,737.99,428.44,733.92z"/>
	<path class="st8" d="M488.7,721.51c-9.16,1.85-18.33,3.67-27.49,5.44c0.52,2.15,1.71,3.7,3.57,4.64c1.86,0.94,4.16,1.15,6.91,0.6
		c1.89-0.37,3.57-0.98,5.02-1.84c1.46-0.85,2.81-2.01,4.06-3.48c1.89,1.65,3.78,3.29,5.67,4.94c-3.38,4.6-8.36,7.55-14.93,8.85
		c-4.1,0.81-7.73,0.71-10.9-0.27c-3.17-0.99-5.63-2.74-7.37-5.24c-1.74-2.51-2.63-5.56-2.67-9.15c-0.04-3.55,0.77-6.9,2.43-10.07
		c1.66-3.17,3.95-5.83,6.89-7.99c2.93-2.16,6.22-3.6,9.87-4.31c3.56-0.7,6.78-0.57,9.68,0.38c2.9,0.95,5.18,2.69,6.86,5.2
		c1.67,2.52,2.53,5.66,2.57,9.44C488.87,718.77,488.81,719.73,488.7,721.51z M463.92,714.75c-1.61,1.66-2.58,3.69-2.91,6.1
		c5.97-1.15,11.93-2.32,17.9-3.51c-0.39-2.22-1.4-3.85-3.03-4.9c-1.64-1.05-3.63-1.34-5.97-0.88
		C467.52,712.02,465.52,713.09,463.92,714.75z"/>
	<path class="st8" d="M530.75,677.96c0.18,16.66,0.36,33.31,0.54,49.97c-3.35,0.7-6.71,1.39-10.06,2.09
		c-0.01-1.39-0.03-2.78-0.05-4.17c-2.58,3.68-6.34,6.04-11.3,7.06c-3.42,0.71-6.53,0.58-9.31-0.38c-2.79-0.96-4.98-2.69-6.59-5.2
		c-1.61-2.51-2.43-5.63-2.47-9.35c-0.04-3.73,0.71-7.16,2.26-10.31c1.55-3.15,3.69-5.77,6.45-7.86c2.75-2.09,5.84-3.49,9.26-4.2
		c4.64-0.96,8.28-0.25,10.92,2.13c-0.06-5.86-0.13-11.72-0.19-17.58C523.72,679.42,527.23,678.69,530.75,677.96z M518.2,719.81
		c1.74-2.18,2.59-4.8,2.56-7.85c-0.03-3.05-0.94-5.31-2.71-6.76c-1.78-1.45-3.99-1.91-6.65-1.36c-2.7,0.56-4.92,1.93-6.66,4.1
		c-1.74,2.18-2.59,4.79-2.56,7.85c0.03,3.05,0.94,5.31,2.71,6.77c1.78,1.46,4.01,1.91,6.72,1.35
		C514.27,723.36,516.46,721.99,518.2,719.81z"/>
	<path class="st8" d="M589.1,681.69c2.79,1.01,4.98,2.77,6.59,5.28c1.61,2.51,2.43,5.62,2.47,9.35c0.04,3.73-0.71,7.14-2.26,10.25
		c-1.55,3.11-3.69,5.7-6.45,7.79c-2.75,2.09-5.82,3.46-9.19,4.13c-5,0.99-8.82,0.18-11.47-2.44c0.01,1.39,0.03,2.78,0.05,4.17
		c-3.35,0.68-6.71,1.36-10.06,2.04c-0.18-16.66-0.36-33.31-0.54-49.97c3.51-0.72,7.02-1.43,10.54-2.14
		c0.06,5.86,0.13,11.72,0.19,17.58c2.62-3.45,6.26-5.64,10.9-6.56C583.24,680.51,586.32,680.68,589.1,681.69z M584.97,706.19
		c1.71-2.16,2.55-4.76,2.52-7.82c-0.03-3.05-0.93-5.32-2.68-6.8c-1.75-1.48-3.98-1.95-6.68-1.41c-2.7,0.54-4.91,1.89-6.62,4.06
		c-1.71,2.17-2.55,4.78-2.52,7.83c0.03,3.05,0.93,5.31,2.68,6.78c1.75,1.47,3.98,1.94,6.68,1.4
		C581.05,709.69,583.25,708.35,584.97,706.19z"/>
	<path class="st8" d="M637.9,671.05c-5.33,13.73-10.66,27.49-16,41.28c-1.62,4.47-3.65,7.78-6.08,9.93
		c-2.44,2.15-5.39,3.54-8.85,4.19c-1.89,0.35-3.76,0.41-5.62,0.17c-1.85-0.24-3.37-0.76-4.55-1.57c1.26-2.74,2.51-5.47,3.77-8.21
		c0.82,0.56,1.76,0.95,2.82,1.16c1.06,0.21,2.11,0.21,3.15,0.02c1.44-0.27,2.61-0.83,3.5-1.69c0.89-0.86,1.69-2.17,2.39-3.92
		c0.04-0.12,0.09-0.24,0.13-0.36c-5.38-11.21-10.75-22.4-16.13-33.56c3.62-0.69,7.25-1.38,10.87-2.05
		c3.49,7.56,6.98,15.14,10.46,22.72c3.33-8.81,6.67-17.61,10-26.4C631.15,672.18,634.53,671.61,637.9,671.05z"/>
	<path class="st8" d="M667.35,700.97c-3.06-1.17-5.46-3.03-7.2-5.61c-1.74-2.58-2.63-5.66-2.67-9.25
		c-0.04-3.59,0.78-6.94,2.46-10.02c1.68-3.08,4.03-5.64,7.05-7.67c3.02-2.02,6.45-3.29,10.27-3.8c3.83-0.5,7.26-0.13,10.29,1.1
		c3.03,1.23,5.42,3.17,7.16,5.81c1.74,2.64,2.63,5.76,2.67,9.36c0.04,3.6-0.78,6.9-2.46,9.93c-1.68,3.02-4.02,5.51-7.02,7.46
		c-3,1.96-6.41,3.18-10.24,3.68C673.85,702.47,670.41,702.14,667.35,700.97z M684.2,689.76c1.71-2.03,2.55-4.58,2.52-7.63
		c-0.03-3.06-0.93-5.39-2.68-7c-1.75-1.6-3.98-2.23-6.68-1.88c-2.7,0.35-4.92,1.57-6.66,3.63c-1.74,2.06-2.59,4.62-2.56,7.68
		c0.03,3.06,0.94,5.37,2.71,6.95c1.78,1.58,4.01,2.19,6.72,1.83C680.28,692.98,682.49,691.79,684.2,689.76z"/>
	<path class="st8" d="M738.51,659.28c0.13,12.1,0.26,24.2,0.39,36.3c-3.33,0.19-6.66,0.4-9.99,0.63c-0.02-1.44-0.03-2.88-0.05-4.32
		c-1.38,1.67-3.03,3-4.96,3.97c-1.93,0.98-4.02,1.56-6.27,1.76c-4.77,0.41-8.57-0.6-11.39-3.07c-2.82-2.46-4.26-6.38-4.32-11.78
		c-0.07-6.83-0.15-13.67-0.22-20.5c3.51-0.37,7.02-0.71,10.53-1.03c0.07,6.32,0.14,12.63,0.2,18.95c0.06,5.85,2.55,8.53,7.46,8.13
		c2.52-0.21,4.54-1.18,6.05-2.94c1.51-1.75,2.25-4.25,2.22-7.49c-0.06-5.98-0.13-11.96-0.19-17.94
		C731.48,659.7,734.99,659.48,738.51,659.28z"/>
	<path class="st8" d="M761,659.19c2.13-0.95,4.59-1.44,7.38-1.47c0.03,3.24,0.07,6.48,0.1,9.72c-1.17-0.08-1.96-0.11-2.36-0.1
		c-3.02,0.04-5.37,0.94-7.06,2.67c-1.69,1.73-2.52,4.29-2.48,7.67c0.06,5.71,0.12,11.43,0.18,17.14c-3.51,0.1-7.02,0.23-10.53,0.39
		c-0.13-12.1-0.26-24.2-0.39-36.31c3.35-0.15,6.71-0.28,10.06-0.39c0.02,1.6,0.03,3.2,0.05,4.79
		C757.18,661.52,758.87,660.14,761,659.19z"/>
</g>
</svg>
