<?xml version="1.0" encoding="UTF-8"?>
<svg width="128px" height="87px" viewBox="0 0 128 87" xmlns="http://www.w3.org/2000/svg" xmlns:xlink="http://www.w3.org/1999/xlink" version="1.1">
 <!-- Generated by Pixelmator Pro 1.1.5 -->
 <path id="path" d="M127.299 81.512 C127.299 83.755 125.482 85.573 123.238 85.573 L5.36 85.573 C3.118 85.573 1.299 83.756 1.299 81.512 L1.299 5.455 C1.299 3.212 3.117 1.394 5.36 1.394 L123.238 1.394 C125.481 1.394 127.299 3.212 127.299 5.455 L127.299 81.512 Z" fill="#808080" fill-opacity="1" stroke="none"/>
 <path id="path-1" d="M20.4 27.285 C22.223 27.285 24.045 27.276 25.868 27.288 28.889 27.306 31.459 29.715 31.645 32.732 31.78 34.916 31.362 36.984 30.133 38.833 28.975 40.573 27.313 41.632 25.363 42.277 23.137 43.011 20.841 43.161 18.517 43.067 17.956 43.046 17.394 43.025 16.833 43.025 16.48 43.024 16.207 43.172 16.101 43.539 15.806 44.557 15.499 45.571 15.221 46.594 14.934 47.647 14.678 48.708 14.405 49.764 14.258 50.336 13.943 50.59 13.36 50.594 12.089 50.599 10.819 50.604 9.549 50.604 8.882 50.604 8.595 50.294 8.704 49.618 8.808 48.962 8.973 48.314 9.124 47.667 10.616 41.234 12.111 34.803 13.605 28.371 13.797 27.542 14.172 27.241 15.026 27.241 16.817 27.24 18.609 27.241 20.4 27.241 20.4 27.254 20.4 27.27 20.4 27.285 Z M19.421 38.646 C19.971 38.607 20.441 38.59 20.904 38.536 22.085 38.396 23.217 38.1 24.179 37.357 25.262 36.521 25.64 35.406 25.417 34.068 25.213 32.845 24.42 32.171 23.309 31.8 22.151 31.413 20.956 31.401 19.758 31.503 19.172 31.554 18.791 31.883 18.644 32.475 18.5 33.06 18.315 33.635 18.182 34.223 17.939 35.286 17.705 36.353 17.502 37.422 17.373 38.098 17.617 38.434 18.293 38.549 18.689 38.617 19.098 38.621 19.421 38.646 Z" fill="#ffffff" fill-opacity="1" stroke="none"/>
 <path id="path-2" d="M80.974 27.301 C82.806 27.301 84.641 27.239 86.47 27.316 88.707 27.41 91.695 28.781 92.143 32.204 92.539 35.227 91.816 37.954 89.591 40.151 88.338 41.389 86.775 42.085 85.085 42.514 83.135 43.01 81.152 43.149 79.146 43.04 78.545 43.009 77.943 43.011 77.34 43.02 77.038 43.025 76.8 43.171 76.708 43.485 76.395 44.55 76.072 45.611 75.779 46.681 75.493 47.722 75.242 48.772 74.967 49.816 74.832 50.329 74.503 50.577 73.97 50.579 72.667 50.583 71.366 50.585 70.065 50.583 69.541 50.582 69.271 50.35 69.32 49.818 69.374 49.243 69.509 48.673 69.64 48.11 71.107 41.768 72.581 35.429 74.053 29.089 74.12 28.796 74.182 28.502 74.259 28.211 74.424 27.584 74.83 27.267 75.476 27.266 77.309 27.265 79.141 27.266 80.973 27.266 80.974 27.276 80.974 27.289 80.974 27.301 Z M80.407 38.69 C81.645 38.592 82.851 38.419 83.979 37.874 85.715 37.037 86.461 35.452 85.941 33.682 85.605 32.543 84.728 32.02 83.674 31.708 82.609 31.393 81.515 31.415 80.424 31.471 79.789 31.502 79.393 31.851 79.227 32.472 78.977 33.404 78.73 34.339 78.519 35.28 78.343 36.057 78.184 36.843 78.09 37.634 78.025 38.198 78.24 38.45 78.798 38.543 79.328 38.631 79.871 38.645 80.407 38.69 Z" fill="#ffffff" fill-opacity="1" stroke="none"/>
 <path id="path-3" d="M52.96 58.464 C52.262 58.464 51.564 58.467 50.867 58.464 50.367 58.461 50.214 58.303 50.298 57.817 50.339 57.579 50.437 57.337 50.566 57.13 51.628 55.425 52.705 53.73 53.774 52.028 54 51.667 54.157 51.291 54.024 50.847 53.949 50.598 53.88 50.348 53.833 50.092 52.884 44.98 51.938 39.866 50.995 34.752 50.946 34.485 50.906 34.218 50.87 33.95 50.771 33.191 51.213 32.68 51.974 32.665 52.995 32.645 54.014 32.614 55.034 32.606 55.987 32.599 56.462 32.99 56.619 33.932 56.995 36.189 57.351 38.45 57.721 40.708 57.861 41.56 58.018 42.409 58.168 43.261 58.185 43.351 58.188 43.463 58.242 43.528 58.328 43.632 58.445 43.755 58.564 43.774 58.657 43.787 58.811 43.676 58.871 43.58 60.686 40.651 62.493 37.718 64.305 34.788 64.633 34.257 64.999 33.748 65.309 33.206 65.516 32.845 65.817 32.681 66.198 32.675 67.663 32.655 69.131 32.638 70.597 32.658 71.141 32.665 71.317 33.043 71.034 33.523 69.847 35.543 68.673 37.567 67.453 39.565 64.07 45.11 60.67 50.643 57.269 56.175 56.882 56.804 56.439 57.399 56.026 58.01 55.762 58.401 55.4 58.544 54.928 58.523 54.273 58.496 53.617 58.516 52.962 58.516 52.96 58.5 52.96 58.482 52.96 58.464 Z" fill="#ffffff" fill-opacity="1" stroke="none"/>
 <path id="path-4" d="M41.275 48.772 C40.923 48.963 40.667 49.1 40.415 49.241 39.787 49.589 39.154 49.929 38.536 50.293 37.36 50.987 36.064 51.144 34.743 51.098 34.022 51.071 33.283 50.991 32.592 50.795 30.982 50.339 30.042 49.246 29.844 47.567 29.673 46.111 29.816 44.694 30.546 43.391 31.374 41.911 32.718 41.113 34.276 40.599 35.667 40.139 37.105 40.037 38.555 40.007 39.699 39.983 40.844 39.945 41.988 39.911 42.122 39.908 42.258 39.875 42.391 39.881 42.924 39.903 43.171 39.578 43.259 39.125 43.335 38.731 43.404 38.319 43.366 37.925 43.292 37.153 42.87 36.687 42.1 36.604 41.163 36.502 40.213 36.45 39.272 36.479 37.898 36.522 36.536 36.709 35.209 37.088 35.001 37.148 34.804 37.248 34.603 37.332 34.074 37.553 33.595 37.293 33.638 36.734 33.706 35.835 33.822 34.933 34.01 34.052 34.111 33.581 34.512 33.275 35.015 33.173 36.732 32.824 38.466 32.633 40.218 32.585 41.647 32.547 43.068 32.593 44.47 32.909 45.738 33.196 46.799 33.843 47.694 34.77 48.663 35.776 48.989 37.009 48.742 38.347 48.283 40.829 47.757 43.301 47.245 45.775 46.979 47.058 46.69 48.335 46.399 49.613 46.256 50.235 45.885 50.566 45.238 50.589 44.032 50.63 42.824 50.64 41.617 50.651 41.26 50.654 41.165 50.528 41.186 50.16 41.211 49.729 41.241 49.298 41.275 48.772 Z M37.656 47.611 C38.204 47.56 38.682 47.535 39.155 47.467 40.282 47.311 41.181 46.794 41.711 45.748 42.126 44.93 42.322 44.048 42.363 43.135 42.388 42.561 42.204 42.379 41.625 42.403 40.762 42.435 39.899 42.468 39.04 42.546 38.168 42.628 37.311 42.797 36.521 43.207 35.462 43.757 35.022 44.59 35.164 45.769 35.277 46.708 35.751 47.265 36.674 47.485 37.016 47.564 37.373 47.578 37.656 47.611 Z" fill="#ffffff" fill-opacity="1" stroke="none"/>
 <path id="path-5" d="M101.753 48.784 C101.541 48.869 101.406 48.911 101.281 48.976 100.482 49.4 99.685 49.827 98.888 50.256 98.141 50.657 97.376 50.989 96.514 51.056 95.325 51.149 94.147 51.163 92.994 50.786 91.36 50.251 90.431 49.046 90.292 47.338 90.204 46.265 90.288 45.218 90.652 44.205 91.277 42.472 92.571 41.431 94.241 40.794 95.537 40.299 96.885 40.083 98.266 40.048 99.66 40.012 101.054 39.981 102.447 39.921 103.466 39.879 103.566 39.909 103.826 38.759 103.894 38.463 103.89 38.133 103.844 37.829 103.738 37.131 103.315 36.733 102.592 36.577 101.615 36.364 100.63 36.383 99.641 36.453 98.292 36.548 96.953 36.701 95.646 37.075 95.477 37.124 95.315 37.196 95.158 37.273 94.554 37.566 94.076 37.305 94.126 36.649 94.189 35.822 94.294 34.995 94.448 34.181 94.54 33.684 94.886 33.313 95.404 33.223 96.457 33.038 97.511 32.834 98.575 32.75 99.921 32.646 101.277 32.592 102.627 32.628 104.373 32.677 106.056 33.007 107.472 34.164 108.336 34.87 108.998 35.7 109.187 36.83 109.316 37.61 109.227 38.389 109.066 39.155 108.35 42.557 107.627 45.959 106.902 49.359 106.704 50.29 106.418 50.55 105.465 50.585 104.353 50.622 103.238 50.628 102.124 50.638 101.749 50.643 101.668 50.55 101.681 50.172 101.696 49.739 101.726 49.307 101.753 48.784 Z M98.253 47.634 C98.775 47.583 99.285 47.554 99.787 47.481 100.927 47.317 101.82 46.78 102.35 45.719 102.75 44.917 102.929 44.053 102.989 43.167 103.029 42.57 102.82 42.362 102.222 42.392 101.193 42.441 100.163 42.485 99.141 42.595 98.335 42.682 97.55 42.901 96.848 43.342 96.055 43.84 95.679 44.558 95.718 45.491 95.766 46.608 96.283 47.278 97.307 47.515 97.618 47.588 97.944 47.597 98.253 47.634 Z" fill="#ffffff" fill-opacity="1" stroke="none"/>
 <path id="path-6" d="M112.683 50.528 C112.038 50.528 111.392 50.525 110.747 50.529 110.321 50.531 110.073 50.327 110.129 49.906 110.233 49.093 110.358 48.28 110.535 47.481 111.931 41.18 113.343 34.882 114.752 28.584 114.795 28.393 114.851 28.199 114.935 28.024 115.108 27.662 115.387 27.421 115.808 27.42 117.108 27.418 118.41 27.416 119.711 27.433 120.202 27.439 120.599 27.986 120.486 28.46 118.817 35.476 117.147 42.493 115.478 49.51 115.445 49.652 115.42 49.795 115.396 49.939 115.305 50.454 115.182 50.568 114.649 50.575 113.994 50.584 113.337 50.577 112.682 50.577 112.683 50.56 112.683 50.544 112.683 50.528 Z" fill="#ffffff" fill-opacity="1" stroke="none"/>
</svg>
